<svg width="24" height="24" viewBox="0 0 24 24" fill="none" xmlns="http://www.w3.org/2000/svg">
<path d="M14.3002 9.19812L14.3001 9.19812C13.6907 9.8076 12.864 10.15 12.0021 10.15C11.1401 10.15 10.3135 9.80761 9.70399 9.19811L9.70398 9.1981C9.09449 8.5886 8.75208 7.76196 8.75208 6.9C8.75208 6.03804 9.09449 5.2114 9.70398 4.6019C10.2808 4.0251 11.0886 3.75 12.0021 3.75C12.9156 3.75 13.7234 4.02511 14.3002 4.60189C14.9096 5.21141 15.2521 6.03808 15.2521 6.9C15.2521 7.76192 14.9096 8.58859 14.3002 9.19812ZM19.0196 15.5069L19.0198 15.5071L19.0199 15.5072L19.0202 15.5074L19.0202 15.5074L19.0202 15.5075L19.0392 15.5256L19.0586 15.5416L19.0591 15.542L19.0593 15.5422L19.0595 15.5424L19.0597 15.5426L19.06 15.5428L19.0663 15.5482C19.0735 15.5543 19.0856 15.5648 19.1018 15.5792C19.1342 15.608 19.1829 15.6526 19.2424 15.7107C19.3623 15.8278 19.5215 15.9955 19.6791 16.197C20.0144 16.6258 20.2521 17.0928 20.2521 17.5C20.2521 17.5808 20.2526 17.6611 20.2531 17.7408C20.2552 18.0884 20.2572 18.4248 20.2184 18.7479C20.1695 19.1552 20.0708 19.3706 19.9718 19.4697C19.8727 19.5687 19.6573 19.6674 19.25 19.7163C18.9269 19.7551 18.5905 19.7531 18.2429 19.751C18.1632 19.7505 18.0829 19.75 18.0021 19.75H6.00207C5.92124 19.75 5.84096 19.7505 5.76126 19.751C5.4137 19.7531 5.07722 19.7551 4.75413 19.7163C4.34688 19.6674 4.13149 19.5687 4.03241 19.4697L3.50208 20L4.03241 19.4697C3.93333 19.3706 3.83466 19.1552 3.78575 18.7479C3.74694 18.4248 3.74899 18.0884 3.7511 17.7408C3.75159 17.6611 3.75207 17.5808 3.75207 17.5C3.75207 17.0928 3.98973 16.6258 4.32508 16.197C4.48266 15.9955 4.64187 15.8278 4.76178 15.7107C4.82129 15.6526 4.86998 15.608 4.9024 15.5792C4.91858 15.5648 4.93061 15.5543 4.93782 15.5482L4.9444 15.5426L4.94466 15.5423L4.94488 15.5422L4.94507 15.542L4.94551 15.5416L4.96458 15.5259L4.98318 15.5082L4.98324 15.5081L4.98346 15.5079L4.98361 15.5078L4.98381 15.5076L4.98487 15.5066L4.99462 15.4975C5.00396 15.4888 5.01894 15.475 5.0393 15.4566C5.08003 15.4198 5.14218 15.3647 5.22366 15.2955C5.38683 15.1568 5.62629 14.9626 5.92539 14.7457C6.52804 14.3086 7.35149 13.7953 8.26567 13.4522C10.1364 12.7499 11.0407 12.7499 11.9778 12.75H12.0021H12.0268C12.9633 12.7499 13.8638 12.7499 15.739 13.4523C16.655 13.7955 17.4782 14.3087 18.0801 14.7455C18.3788 14.9623 18.6178 15.1565 18.7806 15.295C18.8618 15.3642 18.9238 15.4193 18.9644 15.456C18.9719 15.4628 18.9786 15.469 18.9847 15.4745C18.9949 15.4839 19.003 15.4914 19.0089 15.4968L19.0186 15.5059L19.0196 15.5069Z" stroke="black" stroke-width="1.5"/>
</svg>
