<svg width="512" height="512" viewBox="0 0 512 512" fill="none" xmlns="http://www.w3.org/2000/svg">
<g clip-path="url(#clip0_3020_832)">
<path d="M0 204.8C0 133.113 0 97.2699 13.9512 69.8892C26.223 45.8045 45.8045 26.223 69.8892 13.9512C97.2699 0 133.113 0 204.8 0H307.2C378.887 0 414.73 0 442.111 13.9512C466.196 26.223 485.777 45.8045 498.049 69.8892C512 97.2699 512 133.113 512 204.8V307.2C512 378.887 512 414.73 498.049 442.111C485.777 466.196 466.196 485.777 442.111 498.049C414.73 512 378.887 512 307.2 512H204.8C133.113 512 97.2699 512 69.8892 498.049C45.8045 485.777 26.223 466.196 13.9512 442.111C0 414.73 0 378.887 0 307.2V204.8Z" fill="black"/>
<rect x="393" y="391" width="186" height="271" rx="52" transform="rotate(180 393 391)" fill="#333333"/>
<rect x="349" y="401" width="186" height="291" rx="52" transform="rotate(180 349 401)" fill="#858585"/>
<rect x="304" y="411" width="186" height="311" rx="52" transform="rotate(180 304 411)" fill="white"/>
</g>
<defs>
<clipPath id="clip0_3020_832">
<rect width="512" height="512" fill="white"/>
</clipPath>
</defs>
</svg>
